<?xml version="1.0" encoding="UTF-8"?>
<svg id="_レイヤー_1" data-name="レイヤー 1" xmlns="http://www.w3.org/2000/svg" viewBox="0 0 281.94 284.21">
  <defs>
    <style>
      .cls-1 {
        fill: none;
      }
    </style>
  </defs>
  <rect class="cls-1" x="-87.09" y="-96.26" width="3523.49" height="2450.28"/>
  <g>
    <path d="m214.52,108.24l-9.84,11.03V31.49H32.42v207.7h104.2l-.02,17,60.26-6.79,77.85-87.31-60.21-53.86Zm.7,12.51l47.01,42.05-67.89,76.15-47-42.05,67.89-76.15Zm-69.74,113.21l.03-26.82,38.87,34.77-26.65,3-12.24-10.95Zm-104.21-3.62V40.35h154.56v88.85l-59.16,66.36-.03,34.78H41.27Z"/>
    <rect x="66.74" y="74.75" width="103.62" height="8.85"/>
    <rect x="66.74" y="108.66" width="103.62" height="8.85"/>
    <rect x="66.74" y="142.57" width="77.86" height="8.85"/>
    <rect x="66.74" y="176.48" width="50.23" height="8.85"/>
  </g>
</svg>