<?xml version="1.0" encoding="UTF-8"?>
<svg id="_レイヤー_1" data-name="レイヤー 1" xmlns="http://www.w3.org/2000/svg" viewBox="0 0 281.94 284.21">
  <defs>
    <style>
      .cls-1 {
        fill: none;
      }
    </style>
  </defs>
  <rect class="cls-1" x="-3154.29" y="-96.26" width="3523.49" height="2450.28"/>
  <path d="m204.26,80.74c-11.81-25.26-37.46-41.57-65.35-41.57-10.58,0-20.84,2.29-30.5,6.8-17.45,8.16-30.67,22.62-37.24,40.73-6.57,18.1-5.69,37.68,2.47,55.12,11.81,25.26,37.46,41.58,65.36,41.58,9.1,0,17.94-1.8,26.39-5.14l32.85,70.26,8.02-3.75-32.85-70.25c33.17-18.06,47.06-59.12,30.86-93.78Zm-122.61,57.33c-7.16-15.3-7.92-32.48-2.16-48.36,5.76-15.88,17.36-28.56,32.67-35.72,8.47-3.97,17.47-5.97,26.75-5.97,24.47,0,46.97,14.31,57.34,36.47,14.77,31.6,1.08,69.31-30.51,84.09-8.47,3.97-17.47,5.97-26.75,5.97-24.47,0-46.98-14.32-57.34-36.47Z"/>
</svg>