<?xml version="1.0" encoding="UTF-8"?>
<svg id="_レイヤー_1" data-name="レイヤー 1" xmlns="http://www.w3.org/2000/svg" viewBox="0 0 281.94 284.21">
  <defs>
    <style>
      .cls-1 {
        fill: none;
      }
    </style>
  </defs>
  <rect class="cls-1" x="-407.68" y="-1833.35" width="3523.49" height="2450.28"/>
  <g>
    <path d="m107.21,144.89c5.15-3.58,8.55-9.53,8.55-16.26,0-10.93-8.89-19.83-19.83-19.83s-19.83,8.89-19.83,19.83c0,6.72,3.38,12.64,8.5,16.23-6.44,3.83-10.81,10.79-10.81,18.81v33.62h8.85v-33.62c0-7.23,5.88-13.11,13.45-13.11s13.11,5.88,13.11,13.11v33.62h8.85v-33.62c0-8-4.34-14.94-10.85-18.78Zm-11.28-5.3c-6.05,0-10.97-4.92-10.97-10.97s4.92-10.97,10.97-10.97,10.97,4.92,10.97,10.97-4.92,10.97-10.97,10.97Z"/>
    <rect x="150.77" y="124.51" width="70.68" height="8.85"/>
    <rect x="150.77" y="150.83" width="70.68" height="8.85"/>
    <rect x="150.77" y="177.15" width="70.68" height="8.85"/>
    <path d="m173.92,74.91v-5.87l15.18-25.48h-10.31l-11.87,19.92h-40.52l-11.86-19.92h-10.31l15.28,25.65v5.7H39.55v160.7h214.33V74.91h-79.96Zm-45.55-2.58h36.7v19.26h-36.7v-19.26Zm116.66,154.42H48.41V83.76h71.11v16.68h54.4v-16.68h71.11v142.99Z"/>
  </g>
</svg>